<svg width="74" height="32" viewBox="0 0 74 32" fill="none" xmlns="http://www.w3.org/2000/svg">
<g filter="url(#filter0_d_846_5386)">
<path d="M34.82 16.44V18.62H51.58V16.44H34.82ZM41.78 12.32V17.02H44.42V12.32H41.78ZM41.68 3.28V4.62C41.68 7.18 39.42 10.02 35.2 10.7L36.3 12.92C41.14 12.04 44 8.56 44 4.62V3.28H41.68ZM42.2 3.28V4.62C42.2 8.62 45.06 12.02 49.92 12.92L51.02 10.7C46.78 10.02 44.52 7.24 44.52 4.62V3.28H42.2ZM66.5184 2.26V20.78H69.0584V2.26H66.5184ZM64.1784 9.24V11.36H67.2384V9.24H64.1784ZM58.6584 4.52V5.08C58.6584 9.52 57.1784 12.64 52.9584 15.14L54.4984 16.98C59.6784 13.96 61.1984 9.74 61.1984 4.52H58.6584ZM53.8984 4.52V6.66H59.4384V4.52H53.8984ZM62.4184 2.74V19.98H64.8984V2.74H62.4184Z" fill="white"/>
<path d="M16 22C21.5228 22 26 17.5228 26 12C26 6.47715 21.5228 2 16 2C10.4772 2 6 6.47715 6 12C6 17.5228 10.4772 22 16 22Z" stroke="white" stroke-width="2" stroke-linecap="round" stroke-linejoin="round"/>
<path d="M13.0898 8.99959C13.3249 8.33126 13.789 7.7677 14.3998 7.40873C15.0106 7.04975 15.7287 6.91853 16.427 7.0383C17.1253 7.15808 17.7587 7.52112 18.2149 8.06312C18.6712 8.60512 18.9209 9.29112 18.9198 9.99959C18.9198 11.9996 15.9198 12.9996 15.9198 12.9996" stroke="white" stroke-width="2" stroke-linecap="round" stroke-linejoin="round"/>
<path d="M16 17H16.01" stroke="white" stroke-width="2" stroke-linecap="round" stroke-linejoin="round"/>
</g>
<defs>
<filter id="filter0_d_846_5386" x="0" y="0" width="73.0586" height="32" filterUnits="userSpaceOnUse" color-interpolation-filters="sRGB">
<feFlood flood-opacity="0" result="BackgroundImageFix"/>
<feColorMatrix in="SourceAlpha" type="matrix" values="0 0 0 0 0 0 0 0 0 0 0 0 0 0 0 0 0 0 127 0" result="hardAlpha"/>
<feOffset dy="4"/>
<feGaussianBlur stdDeviation="2"/>
<feComposite in2="hardAlpha" operator="out"/>
<feColorMatrix type="matrix" values="0 0 0 0 0 0 0 0 0 0 0 0 0 0 0 0 0 0 0.25 0"/>
<feBlend mode="normal" in2="BackgroundImageFix" result="effect1_dropShadow_846_5386"/>
<feBlend mode="normal" in="SourceGraphic" in2="effect1_dropShadow_846_5386" result="shape"/>
</filter>
</defs>
</svg>
