<svg width="86" height="25" viewBox="0 0 86 25" fill="none" xmlns="http://www.w3.org/2000/svg">
<path d="M40.5 16.54V13.8H46.08V11.68H35.4V9.62H45.66V3.48H32.76V5.58H43.06V7.56H32.78V13.8H37.86V16.54H30.86V18.7H47.54V16.54H40.5ZM61.2384 6.18C61.2384 8.68 61.2384 11.3 60.5784 14.82L63.1984 15.06C63.8784 11.28 63.8784 8.76 63.8784 6.18V4H50.9784V6.1H61.2384V6.18ZM49.2584 16.16V18.32H65.9184V16.16H49.2584ZM82.9569 2.32H80.2969V15.54H82.9569V2.32ZM70.4969 8.16C70.4969 6.64 71.5769 5.76 72.9369 5.76C74.3169 5.76 75.3569 6.64 75.3569 8.16C75.3569 9.64 74.3169 10.54 72.9369 10.54C71.5769 10.54 70.4969 9.64 70.4969 8.16ZM77.9369 8.16C77.9369 5.44 75.7569 3.48 72.9369 3.48C70.1169 3.48 67.9169 5.44 67.9169 8.16C67.9169 10.84 70.1169 12.82 72.9369 12.82C75.7569 12.82 77.9369 10.84 77.9369 8.16ZM73.3369 18.3V14.24H70.6969V20.4H83.4169V18.3H73.3369Z" fill="white"/>
<path d="M15.625 3.125H19.7917C20.3442 3.125 20.8741 3.34449 21.2648 3.73519C21.6555 4.12589 21.875 4.6558 21.875 5.20833V19.7917C21.875 20.3442 21.6555 20.8741 21.2648 21.2648C20.8741 21.6555 20.3442 21.875 19.7917 21.875H15.625" stroke="white" stroke-width="2" stroke-linecap="round" stroke-linejoin="round"/>
<path d="M10.416 17.7087L15.6243 12.5003L10.416 7.29199" stroke="white" stroke-width="2" stroke-linecap="round" stroke-linejoin="round"/>
<path d="M15.625 12.5H3.125" stroke="white" stroke-width="2" stroke-linecap="round" stroke-linejoin="round"/>
</svg>
