<svg width="139" height="37" viewBox="0 0 139 37" fill="none" xmlns="http://www.w3.org/2000/svg">
<path d="M18.768 3C19.5378 1.66666 21.4623 1.66667 22.2321 3L39.1196 32.25C39.8894 33.5833 38.9271 35.25 37.3875 35.25H3.61253C2.07293 35.25 1.11069 33.5833 1.88049 32.25L18.768 3Z" fill="white"/>
<path d="M20.5 9L32.1913 30H8.80866L20.5 9Z" fill="#00355B"/>
<rect x="105" y="2" width="5" height="30" rx="2" transform="rotate(90 105 2)" fill="white"/>
<rect x="105" y="30" width="5" height="30" rx="2" transform="rotate(90 105 30)" fill="white"/>
<rect x="98.1816" y="2" width="6.81818" height="17" rx="2" fill="white"/>
<rect x="81.8184" y="35" width="6.81818" height="21" rx="2" transform="rotate(-180 81.8184 35)" fill="white"/>
<rect x="105" y="14" width="5" height="30" rx="2" transform="rotate(90 105 14)" fill="white"/>
<rect x="139" y="2" width="5" height="30" rx="2" transform="rotate(90 139 2)" fill="white"/>
<rect x="139" y="30" width="5" height="30" rx="2" transform="rotate(90 139 30)" fill="white"/>
<rect x="115.818" y="35" width="6.81818" height="33" rx="2" transform="rotate(-180 115.818 35)" fill="white"/>
<rect x="42" y="2" width="6.15385" height="33" rx="2" fill="white"/>
<rect x="74" y="30.1475" width="4.85294" height="32" rx="2" transform="rotate(90 74 30.1475)" fill="white"/>
</svg>
