<svg width="104" height="25" viewBox="0 0 104 25" fill="none" xmlns="http://www.w3.org/2000/svg">
<path d="M30.82 16.58V18.74H47.58V16.58H30.82ZM37.84 13.08V17.46H40.5V13.08H37.84ZM32.7 3.46V5.56H43.06V7.54H32.74V12.74H35.38V9.62H45.7V3.46H32.7ZM32.74 11.68V13.82H46.12V11.68H32.74ZM50.9184 3.96V6.06H62.6584V3.96H50.9184ZM49.2184 16.2V18.36H65.9584V16.2H49.2184ZM61.2584 3.96V6.16C61.2584 8.66 61.2584 11.3 60.5784 14.86L63.2384 15.08C63.8984 11.28 63.8984 8.76 63.8984 6.16V3.96H61.2584ZM72.5569 3.54C69.7369 3.54 67.6969 6.1 67.6969 10.14C67.6969 14.22 69.7369 16.78 72.5569 16.78C75.3769 16.78 77.4169 14.22 77.4169 10.14C77.4169 6.1 75.3769 3.54 72.5569 3.54ZM72.5569 5.96C73.9369 5.96 74.8769 7.42 74.8769 10.14C74.8769 12.9 73.9369 14.38 72.5569 14.38C71.1769 14.38 70.2569 12.9 70.2569 10.14C70.2569 7.42 71.1769 5.96 72.5569 5.96ZM79.4369 2.26V20.78H82.1169V2.26H79.4369ZM81.5169 9.24V11.44H84.7969V9.24H81.5169ZM85.9953 10.38V12.52H102.755V10.38H85.9953ZM93.0153 11.32V14.26H95.6553V11.32H93.0153ZM92.9553 15V15.32C92.9553 16.74 91.1153 18.36 87.0753 18.72L87.9353 20.72C92.6953 20.28 95.2153 18.02 95.2153 15.32V15H92.9553ZM93.4353 15V15.32C93.4353 18.14 95.9953 20.28 100.735 20.72L101.575 18.72C97.4753 18.38 95.6953 16.84 95.6953 15.32V15H93.4353ZM94.3753 2.46C90.2753 2.46 87.6753 3.76 87.6753 5.96C87.6753 8.16 90.2753 9.46 94.3753 9.46C98.4753 9.46 101.075 8.16 101.075 5.96C101.075 3.76 98.4753 2.46 94.3753 2.46ZM94.3753 4.44C96.9153 4.44 98.3353 4.94 98.3353 5.96C98.3353 6.94 96.9153 7.46 94.3753 7.46C91.8153 7.46 90.4153 6.94 90.4153 5.96C90.4153 4.94 91.8153 4.44 94.3753 4.44Z" fill="white"/>
<path d="M15.625 3.125H19.7917C20.3442 3.125 20.8741 3.34449 21.2648 3.73519C21.6555 4.12589 21.875 4.6558 21.875 5.20833V19.7917C21.875 20.3442 21.6555 20.8741 21.2648 21.2648C20.8741 21.6555 20.3442 21.875 19.7917 21.875H15.625" stroke="white" stroke-width="2" stroke-linecap="round" stroke-linejoin="round"/>
<path d="M10.416 17.7087L15.6243 12.5003L10.416 7.29199" stroke="white" stroke-width="2" stroke-linecap="round" stroke-linejoin="round"/>
<path d="M15.625 12.5H3.125" stroke="white" stroke-width="2" stroke-linecap="round" stroke-linejoin="round"/>
</svg>
