<svg width="83" height="26" viewBox="0 0 83 26" fill="none" xmlns="http://www.w3.org/2000/svg">
<path d="M27.82 18.46V20.64H44.58V18.46H27.82ZM29.1 5.86V7.98H43.2V5.86H29.1ZM29.18 13.52V15.66H43.14V13.52H29.18ZM31.62 7.82V13.72H34.28V7.82H31.62ZM38.04 7.82V13.72H40.68V7.82H38.04ZM46.2184 18.58V20.74H62.9784V18.58H46.2184ZM53.2384 15.08V19.46H55.8984V15.08H53.2384ZM48.0984 5.46V7.56H58.4584V9.54H48.1384V14.74H50.7784V11.62H61.0984V5.46H48.0984ZM48.1384 13.68V15.82H61.5184V13.68H48.1384ZM77.3569 4.26V13.74H80.0369V4.26H77.3569ZM67.4969 14.48V16.52H77.3969V17.58H67.5369V21.72H70.1569V19.48H80.0369V14.48H67.4969ZM67.5369 20.6V22.66H80.5369V20.6H67.5369ZM65.3969 5.38V7.42H75.3769V5.38H65.3969ZM65.1769 13.42C68.3769 13.4 72.5369 13.32 76.1969 12.72L76.0569 10.82C72.4769 11.26 68.1569 11.32 64.9169 11.32L65.1769 13.42ZM66.8569 6.3V12.36H69.3969V6.3H66.8569ZM71.3369 6.3V12.36H73.9169V6.3H71.3369Z" fill="white"/>
<path d="M20 21V19C20 17.9391 19.5786 16.9217 18.8284 16.1716C18.0783 15.4214 17.0609 15 16 15H8C6.93913 15 5.92172 15.4214 5.17157 16.1716C4.42143 16.9217 4 17.9391 4 19V21" stroke="#FAFAFA" stroke-width="2" stroke-linecap="round" stroke-linejoin="round"/>
<path d="M12 11C14.2091 11 16 9.20914 16 7C16 4.79086 14.2091 3 12 3C9.79086 3 8 4.79086 8 7C8 9.20914 9.79086 11 12 11Z" stroke="#FAFAFA" stroke-width="2" stroke-linecap="round" stroke-linejoin="round"/>
</svg>
